<?xml version="1.0" encoding="utf-8"?>
<!-- Generator: Adobe Illustrator 19.0.0, SVG Export Plug-In . SVG Version: 6.00 Build 0)  -->
<svg version="1.1" xmlns="http://www.w3.org/2000/svg" xmlns:xlink="http://www.w3.org/1999/xlink" x="0px" y="0px"
	 viewBox="0 0 1024 1024" style="enable-background:new 0 0 1024 1024;" xml:space="preserve">
<style type="text/css">
	.st0{display:none;}
	.st1{display:inline;fill:#ECF0F1;}
	.st2{fill:#ECF0F1;}
	.st3{display:inline;}
	.st4{fill:#E74C3C;}
	.st5{fill:#2C3E50;}
</style>
<g id="bg" class="st0">
	<rect x="-8.2" y="-9" class="st1" width="1043.1" height="1043.1"/>
</g>
<g id="logo">
	<g>
		<path class="st2" d="M210.1,470.7c-0.8-2-2.8-3.9-6-5.9c-3.2-2-6-9.3-8.5-22.1c0-17.8,2.2-33.2,6.6-46.1
			c4.4-12.9,11.4-26.3,20.9-40.3l24.5-36.1c3.3-4.6,6.3-9.2,9-14c2.7-4.7,4.9-9.2,6.5-13.3c3.3-7.5,4.9-16.1,4.9-25.8
			c0-17.5-7-37.9-21.1-61.2c-14.1-23.3-25-35-32.6-35c-1.1,0-2.3,0.7-3.4,2c-0.5,0.7-1,2.7-1.5,6.1c0,1.3,0.2,3.3,0.6,5.9
			c0.4,2.6,0.8,4.9,1.1,6.9c1.1,4.9,1.8,7.8,2,8.6c0.8,3.4,1.8,6.9,2.9,10.3c2.1,7.9,6.7,20.4,13.7,37.6l1.5,7.9
			c-2.8,0-6.4-3.2-10.8-9.6c-1.5-2.1-3.5-5.6-6.1-10.3c-3.6-6.5-5.9-10.7-6.9-12.5c-2-4.4-3.7-9.3-5.3-14.6
			c-1.6-5.3-3-11.3-4.3-17.8c-2.3-12.9-3.4-25.1-3.4-36.6c0-11.1,0.5-20.3,1.6-27.6c1.1-7.3,2.1-11.6,3.1-12.9c1-1.3,2.1-2,3.4-2.2
			c5.4,0,14.6,8.3,27.7,25c6.2,8.2,12.1,17.5,17.7,27.9c5.6,10.4,10.9,21.8,16,34.4c5.1,12.5,8.9,25.2,11.5,38.2
			c2.6,12.9,3.9,26,3.9,39.3c0,8.3-0.5,16.6-1.4,24.7c-0.9,8.1-2.2,14.9-3.8,20.4c-1.6,5.5-4.2,11.8-7.6,18.9
			c-3.4,7.1-6.9,13.4-10.4,18.9c-3.5,5.5-7.7,11.1-12.4,16.8c-3.9,4.9-7.6,9.7-11,14.5s-6.5,9.2-9.1,13.5c-4.7,8-7.1,15.5-7.1,22.3
			v4.9c0.2,1.6,1.8,3.4,4.9,5.4c3.1,1.6,6.7,2.5,10.8,2.5c3.4,0,6.9-1.3,10.5-3.8c3.5-2.5,8.3-6.8,14.4-12.6
			c6.1-5.9,10.1-8.8,12.1-8.8c1.3,0,3,1.2,5.1,3.6c2.1,2.4,3.1,7.3,3.1,14.9c0,2.1-0.1,4.3-0.2,6.6c-0.2,2.3-0.5,4.7-1,7.1
			c-0.5,4.4-1.3,7.3-2.5,8.6c-3.8,3.8-12.5,14-26.3,30.7c-6.1,8.8-11,15.7-14.9,20.5c-3.8,4.8-10.1,11.6-18.8,20.3
			c-25.9,26.3-45.7,49.2-59.6,68.5c-13.9,19.3-20.9,41.8-20.9,67.5c0,8.8,2.5,18.9,7.4,30.1c4.9,11.2,16.4,23.4,34.4,36.5
			c17.5,12.4,50,24,97.6,34.7c47.5,10.7,71.3,18.7,71.3,23.9l-0.5,2.2l-1-1c-1.3-0.5-2.5-0.9-3.4-1.2c-3.1-1-6.6-2-10.6-2.9l-41-6.4
			c-10.1-1.1-18.9-2.3-26.4-3.3c-7.4-1.1-13.5-2.1-18.3-3.1c-47.1-8.8-81.8-23.7-104.1-44.6c-22.3-20.9-33.4-46.3-33.4-76.2
			c0-7.9,0.8-16.1,2.5-24.8c1.6-8.7,4.5-19.3,8.6-31.8c4.1-12.5,10.4-23.9,18.9-34c4.3-5.2,9.2-11,14.7-17.2
			c4.9-5.6,11.5-12.9,19.6-22.1c14.7-16.7,23.4-26.5,26-29.5C205,481.2,209.8,474.1,210.1,470.7z"/>
		<path class="st2" d="M439.4,520.5c-15.7,0-28.4-4.1-38.1-12.4c-9.7-8.3-17.8-20.5-24.3-36.7l-8.9-25.3l-9.3-33.4l-8.4-34.6
			l-7.6-35.3l-9.2-53.1c-1.5-11.8-2.2-19.4-2.2-22.9c0-5.2,0.5-9.7,1.5-13.3c1-3.6,2.6-5.4,4.9-5.4c1.3,0,4.1,9.6,8.4,28.8
			l14.2,65.8l8.3,36.6c1.8,7.2,3.3,12.8,4.4,16.7c1.1,3.9,2.8,9,4.9,15.2c6.4,20.5,14.4,36.1,23.9,47c9.6,10.9,22,16.3,37.4,16.3
			V520.5z"/>
		<path class="st2" d="M435,474.6c16,0,27.4-1.6,34-4.8s11.7-7.9,15.1-14.1c-9.5-2.3-19.5-6.5-29.9-12.8
			c-10.5-6.2-16.7-12.4-18.7-18.7c-0.7-2.8-1.2-6-1.7-9.6c-0.5-3.6-0.7-7-0.7-10.1c0-19.8,7.3-36.7,21.8-50.8
			c14.6-14.1,29.1-21.1,43.7-21.1c18,0,29.8,6.6,35.3,19.8c5.6,13.2,8.3,28.6,8.3,46.3l6.4-4.9l5.6-4.9l9.1-9.1l10.1-11.5l5.4-6.4
			l4.7-6.9c2.1,0,3.2,2.5,3.2,7.4c0,3.8-0.3,7-1,9.8l-1.2,5.9c0,1.1-0.8,3.7-2.3,7.6c-1.6,3.9-3.1,7.1-4.5,9.6l-9.3,13.3L556,425
			c-1.1,1.3-3.2,3.6-6.1,6.9c-3.6,3.9-6.1,6.6-7.6,8.1l-3.2,34.1l-1.2,28.5c0,1.1-0.6,2.8-1.7,4.9c-0.7,1.8-2.4,3.2-5.2,4.2
			c-0.8,0-1.6-2-2.5-5.9c-0.5-4.3-0.7-9.7-0.7-16.4V468l1.5-12.3l-19,21.8c-11.4,11.8-23.5,21.9-36.4,30.3
			c-12.9,8.4-25.9,12.6-38.9,12.6V474.6z M469.6,383.9c-4.6,3.8-8,7.4-10.3,10.8c-2.3,3.4-2.9,5.8-2,7.3c3.8,3.3,10.3,6.8,19.5,10.4
			l13.3,3.7c4.3,0.7,7.2,1,8.6,1.1c1.5,0.1,3.1,0.1,4.9,0.1c10.2,0,18.7-2.5,25.5-7.6v-4.4v-4.2l-1.5-4.2c-0.5-2.1-2.3-5.1-5.3-8.8
			c-2.3-3.1-5.8-6.1-10.7-9.1c-4.8-2.9-10.3-4.4-16.5-4.4c-3.4,0-5.7,0-6.8,0c-1.3,0-3.2,0.6-5.7,1.7
			C478.9,377.6,474.5,380.1,469.6,383.9z"/>
	</g>
	<g>
		<path class="st2" d="M210.1,470.7c-0.8-2-2.8-3.9-6-5.9c-3.2-2-6-9.3-8.5-22.1c0-17.8,2.2-33.2,6.6-46.1
			c4.4-12.9,11.4-26.3,20.9-40.3l24.5-36.1c3.3-4.6,6.3-9.2,9-14c2.7-4.7,4.9-9.2,6.5-13.3c3.3-7.5,4.9-16.1,4.9-25.8
			c0-17.5-7-37.9-21.1-61.2c-14.1-23.3-25-35-32.6-35c-1.1,0-2.3,0.7-3.4,2c-0.5,0.7-1,2.7-1.5,6.1c0,1.3,0.2,3.3,0.6,5.9
			c0.4,2.6,0.8,4.9,1.1,6.9c1.1,4.9,1.8,7.8,2,8.6c0.8,3.4,1.8,6.9,2.9,10.3c2.1,7.9,6.7,20.4,13.7,37.6l1.5,7.9
			c-2.8,0-6.4-3.2-10.8-9.6c-1.5-2.1-3.5-5.6-6.1-10.3c-3.6-6.5-5.9-10.7-6.9-12.5c-2-4.4-3.7-9.3-5.3-14.6
			c-1.6-5.3-3-11.3-4.3-17.8c-2.3-12.9-3.4-25.1-3.4-36.6c0-11.1,0.5-20.3,1.6-27.6c1.1-7.3,2.1-11.6,3.1-12.9c1-1.3,2.1-2,3.4-2.2
			c5.4,0,14.6,8.3,27.7,25c6.2,8.2,12.1,17.5,17.7,27.9c5.6,10.4,10.9,21.8,16,34.4c5.1,12.5,8.9,25.2,11.5,38.2
			c2.6,12.9,3.9,26,3.9,39.3c0,8.3-0.5,16.6-1.4,24.7c-0.9,8.1-2.2,14.9-3.8,20.4c-1.6,5.5-4.2,11.8-7.6,18.9
			c-3.4,7.1-6.9,13.4-10.4,18.9c-3.5,5.5-7.7,11.1-12.4,16.8c-3.9,4.9-7.6,9.7-11,14.5s-6.5,9.2-9.1,13.5c-4.7,8-7.1,15.5-7.1,22.3
			v4.9c0.2,1.6,1.8,3.4,4.9,5.4c3.1,1.6,6.7,2.5,10.8,2.5c3.4,0,6.9-1.3,10.5-3.8c3.5-2.5,8.3-6.8,14.4-12.6
			c6.1-5.9,10.1-8.8,12.1-8.8c1.3,0,3,1.2,5.1,3.6c2.1,2.4,3.1,7.3,3.1,14.9c0,2.1-0.1,4.3-0.2,6.6c-0.2,2.3-0.5,4.7-1,7.1
			c-0.5,4.4-1.3,7.3-2.5,8.6c-3.8,3.8-12.5,14-26.3,30.7c-6.1,8.8-11,15.7-14.9,20.5c-3.8,4.8-10.1,11.6-18.8,20.3
			c-25.9,26.3-45.7,49.2-59.6,68.5c-13.9,19.3-20.9,41.8-20.9,67.5c0,8.8,2.5,18.9,7.4,30.1c4.9,11.2,16.4,23.4,34.4,36.5
			c17.5,12.4,50,24,97.6,34.7c47.5,10.7,71.3,18.7,71.3,23.9l-0.5,2.2l-1-1c-1.3-0.5-2.5-0.9-3.4-1.2c-3.1-1-6.6-2-10.6-2.9l-41-6.4
			c-10.1-1.1-18.9-2.3-26.4-3.3c-7.4-1.1-13.5-2.1-18.3-3.1c-47.1-8.8-81.8-23.7-104.1-44.6c-22.3-20.9-33.4-46.3-33.4-76.2
			c0-7.9,0.8-16.1,2.5-24.8c1.6-8.7,4.5-19.3,8.6-31.8c4.1-12.5,10.4-23.9,18.9-34c4.3-5.2,9.2-11,14.7-17.2
			c4.9-5.6,11.5-12.9,19.6-22.1c14.7-16.7,23.4-26.5,26-29.5C205,481.2,209.8,474.1,210.1,470.7z"/>
		<path class="st2" d="M439.4,520.5c-15.7,0-28.4-4.1-38.1-12.4c-9.7-8.3-17.8-20.5-24.3-36.7l-8.9-25.3l-9.3-33.4l-8.4-34.6
			l-7.6-35.3l-9.2-53.1c-1.5-11.8-2.2-19.4-2.2-22.9c0-5.2,0.5-9.7,1.5-13.3c1-3.6,2.6-5.4,4.9-5.4c1.3,0,4.1,9.6,8.4,28.8
			l14.2,65.8l8.3,36.6c1.8,7.2,3.3,12.8,4.4,16.7c1.1,3.9,2.8,9,4.9,15.2c6.4,20.5,14.4,36.1,23.9,47c9.6,10.9,22,16.3,37.4,16.3
			V520.5z"/>
		<path class="st2" d="M435,474.6c16,0,27.4-1.6,34-4.8s11.7-7.9,15.1-14.1c-9.5-2.3-19.5-6.5-29.9-12.8
			c-10.5-6.2-16.7-12.4-18.7-18.7c-0.7-2.8-1.2-6-1.7-9.6c-0.5-3.6-0.7-7-0.7-10.1c0-19.8,7.3-36.7,21.8-50.8
			c14.6-14.1,29.1-21.1,43.7-21.1c18,0,29.8,6.6,35.3,19.8c5.6,13.2,8.3,28.6,8.3,46.3l6.4-4.9l5.6-4.9l9.1-9.1l10.1-11.5l5.4-6.4
			l4.7-6.9c2.1,0,3.2,2.5,3.2,7.4c0,3.8-0.3,7-1,9.8l-1.2,5.9c0,1.1-0.8,3.7-2.3,7.6c-1.6,3.9-3.1,7.1-4.5,9.6l-9.3,13.3L556,425
			c-1.1,1.3-3.2,3.6-6.1,6.9c-3.6,3.9-6.1,6.6-7.6,8.1l-3.2,34.1l-1.2,28.5c0,1.1-0.6,2.8-1.7,4.9c-0.7,1.8-2.4,3.2-5.2,4.2
			c-0.8,0-1.6-2-2.5-5.9c-0.5-4.3-0.7-9.7-0.7-16.4V468l1.5-12.3l-19,21.8c-11.4,11.8-23.5,21.9-36.4,30.3
			c-12.9,8.4-25.9,12.6-38.9,12.6V474.6z M469.6,383.9c-4.6,3.8-8,7.4-10.3,10.8c-2.3,3.4-2.9,5.8-2,7.3c3.8,3.3,10.3,6.8,19.5,10.4
			l13.3,3.7c4.3,0.7,7.2,1,8.6,1.1c1.5,0.1,3.1,0.1,4.9,0.1c10.2,0,18.7-2.5,25.5-7.6v-4.4v-4.2l-1.5-4.2c-0.5-2.1-2.3-5.1-5.3-8.8
			c-2.3-3.1-5.8-6.1-10.7-9.1c-4.8-2.9-10.3-4.4-16.5-4.4c-3.4,0-5.7,0-6.8,0c-1.3,0-3.2,0.6-5.7,1.7
			C478.9,377.6,474.5,380.1,469.6,383.9z"/>
	</g>
	<g>
		<path class="st2" d="M210.1,470.7c-0.8-2-2.8-3.9-6-5.9c-3.2-2-6-9.3-8.5-22.1c0-17.8,2.2-33.2,6.6-46.1
			c4.4-12.9,11.4-26.3,20.9-40.3l24.5-36.1c3.3-4.6,6.3-9.2,9-14c2.7-4.7,4.9-9.2,6.5-13.3c3.3-7.5,4.9-16.1,4.9-25.8
			c0-17.5-7-37.9-21.1-61.2c-14.1-23.3-25-35-32.6-35c-1.1,0-2.3,0.7-3.4,2c-0.5,0.7-1,2.7-1.5,6.1c0,1.3,0.2,3.3,0.6,5.9
			c0.4,2.6,0.8,4.9,1.1,6.9c1.1,4.9,1.8,7.8,2,8.6c0.8,3.4,1.8,6.9,2.9,10.3c2.1,7.9,6.7,20.4,13.7,37.6l1.5,7.9
			c-2.8,0-6.4-3.2-10.8-9.6c-1.5-2.1-3.5-5.6-6.1-10.3c-3.6-6.5-5.9-10.7-6.9-12.5c-2-4.4-3.7-9.3-5.3-14.6
			c-1.6-5.3-3-11.3-4.3-17.8c-2.3-12.9-3.4-25.1-3.4-36.6c0-11.1,0.5-20.3,1.6-27.6c1.1-7.3,2.1-11.6,3.1-12.9c1-1.3,2.1-2,3.4-2.2
			c5.4,0,14.6,8.3,27.7,25c6.2,8.2,12.1,17.5,17.7,27.9c5.6,10.4,10.9,21.8,16,34.4c5.1,12.5,8.9,25.2,11.5,38.2
			c2.6,12.9,3.9,26,3.9,39.3c0,8.3-0.5,16.6-1.4,24.7c-0.9,8.1-2.2,14.9-3.8,20.4c-1.6,5.5-4.2,11.8-7.6,18.9
			c-3.4,7.1-6.9,13.4-10.4,18.9c-3.5,5.5-7.7,11.1-12.4,16.8c-3.9,4.9-7.6,9.7-11,14.5s-6.5,9.2-9.1,13.5c-4.7,8-7.1,15.5-7.1,22.3
			v4.9c0.2,1.6,1.8,3.4,4.9,5.4c3.1,1.6,6.7,2.5,10.8,2.5c3.4,0,6.9-1.3,10.5-3.8c3.5-2.5,8.3-6.8,14.4-12.6
			c6.1-5.9,10.1-8.8,12.1-8.8c1.3,0,3,1.2,5.1,3.6c2.1,2.4,3.1,7.3,3.1,14.9c0,2.1-0.1,4.3-0.2,6.6c-0.2,2.3-0.5,4.7-1,7.1
			c-0.5,4.4-1.3,7.3-2.5,8.6c-3.8,3.8-12.5,14-26.3,30.7c-6.1,8.8-11,15.7-14.9,20.5c-3.8,4.8-10.1,11.6-18.8,20.3
			c-25.9,26.3-45.7,49.2-59.6,68.5c-13.9,19.3-20.9,41.8-20.9,67.5c0,8.8,2.5,18.9,7.4,30.1c4.9,11.2,16.4,23.4,34.4,36.5
			c17.5,12.4,50,24,97.6,34.7c47.5,10.7,71.3,18.7,71.3,23.9l-0.5,2.2l-1-1c-1.3-0.5-2.5-0.9-3.4-1.2c-3.1-1-6.6-2-10.6-2.9l-41-6.4
			c-10.1-1.1-18.9-2.3-26.4-3.3c-7.4-1.1-13.5-2.1-18.3-3.1c-47.1-8.8-81.8-23.7-104.1-44.6c-22.3-20.9-33.4-46.3-33.4-76.2
			c0-7.9,0.8-16.1,2.5-24.8c1.6-8.7,4.5-19.3,8.6-31.8c4.1-12.5,10.4-23.9,18.9-34c4.3-5.2,9.2-11,14.7-17.2
			c4.9-5.6,11.5-12.9,19.6-22.1c14.7-16.7,23.4-26.5,26-29.5C205,481.2,209.8,474.1,210.1,470.7z"/>
		<path class="st2" d="M439.4,520.5c-15.7,0-28.4-4.1-38.1-12.4c-9.7-8.3-17.8-20.5-24.3-36.7l-8.9-25.3l-9.3-33.4l-8.4-34.6
			l-7.6-35.3l-9.2-53.1c-1.5-11.8-2.2-19.4-2.2-22.9c0-5.2,0.5-9.7,1.5-13.3c1-3.6,2.6-5.4,4.9-5.4c1.3,0,4.1,9.6,8.4,28.8
			l14.2,65.8l8.3,36.6c1.8,7.2,3.3,12.8,4.4,16.7c1.1,3.9,2.8,9,4.9,15.2c6.4,20.5,14.4,36.1,23.9,47c9.6,10.9,22,16.3,37.4,16.3
			V520.5z"/>
		<path class="st2" d="M435,474.6c16,0,27.4-1.6,34-4.8s11.7-7.9,15.1-14.1c-9.5-2.3-19.5-6.5-29.9-12.8
			c-10.5-6.2-16.7-12.4-18.7-18.7c-0.7-2.8-1.2-6-1.7-9.6c-0.5-3.6-0.7-7-0.7-10.1c0-19.8,7.3-36.7,21.8-50.8
			c14.6-14.1,29.1-21.1,43.7-21.1c18,0,29.8,6.6,35.3,19.8c5.6,13.2,8.3,28.6,8.3,46.3l6.4-4.9l5.6-4.9l9.1-9.1l10.1-11.5l5.4-6.4
			l4.7-6.9c2.1,0,3.2,2.5,3.2,7.4c0,3.8-0.3,7-1,9.8l-1.2,5.9c0,1.1-0.8,3.7-2.3,7.6c-1.6,3.9-3.1,7.1-4.5,9.6l-9.3,13.3L556,425
			c-1.1,1.3-3.2,3.6-6.1,6.9c-3.6,3.9-6.1,6.6-7.6,8.1l-3.2,34.1l-1.2,28.5c0,1.1-0.6,2.8-1.7,4.9c-0.7,1.8-2.4,3.2-5.2,4.2
			c-0.8,0-1.6-2-2.5-5.9c-0.5-4.3-0.7-9.7-0.7-16.4V468l1.5-12.3l-19,21.8c-11.4,11.8-23.5,21.9-36.4,30.3
			c-12.9,8.4-25.9,12.6-38.9,12.6V474.6z M469.6,383.9c-4.6,3.8-8,7.4-10.3,10.8c-2.3,3.4-2.9,5.8-2,7.3c3.8,3.3,10.3,6.8,19.5,10.4
			l13.3,3.7c4.3,0.7,7.2,1,8.6,1.1c1.5,0.1,3.1,0.1,4.9,0.1c10.2,0,18.7-2.5,25.5-7.6v-4.4v-4.2l-1.5-4.2c-0.5-2.1-2.3-5.1-5.3-8.8
			c-2.3-3.1-5.8-6.1-10.7-9.1c-4.8-2.9-10.3-4.4-16.5-4.4c-3.4,0-5.7,0-6.8,0c-1.3,0-3.2,0.6-5.7,1.7
			C478.9,377.6,474.5,380.1,469.6,383.9z"/>
	</g>
	<g>
		<path class="st2" d="M409,672.4c-15.7,0-28.4-4.1-38.1-12.4c-9.7-8.3-17.8-20.5-24.3-36.7l-8.9-25.3l-9.3-33.4l-8.4-34.6
			l-7.6-35.3l-9.2-53.1c-1.5-11.8-2.2-19.4-2.2-22.9c0-5.2,0.5-9.7,1.5-13.3c1-3.6,2.6-5.4,4.9-5.4c1.3,0,4.1,9.6,8.4,28.8
			l14.2,65.8l8.3,36.6c1.8,7.2,3.3,12.8,4.4,16.7c1.1,3.9,2.8,9,4.9,15.2c6.4,20.5,14.4,36.1,23.9,47c9.6,10.9,22,16.3,37.4,16.3
			V672.4z"/>
		<path class="st2" d="M404.6,626.5l8.6-1.5c1.6-0.2,3.2-0.4,4.8-0.6c1.6-0.2,3.4-0.7,5.5-1.3c3.8-0.8,7.2-1.9,10.2-3.2
			c3-1.3,6.8-3.4,11.4-6.1c7.7-4.3,12.4-13.7,14.2-28.4c1.8-14.6,4-22.5,6.6-23.7c2.3-0.5,4.3,2.1,5.9,7.9c0.7,2.5,1.2,5.7,1.7,9.8
			c0.5,4.1,0.7,8.3,0.7,12.8l-0.7,15.7c-0.2,2.3-0.5,4.7-1,7.2c-0.5,2.5-1.1,5-1.7,7.5c-2,8.8-5.8,16.5-11.4,23
			c-5.6,6.5-13.4,12.2-23.3,17.2c-9.9,5-20.4,8.2-31.5,9.7V626.5z M413.4,733.8c3.4-4.9,11.9-8.8,25.3-11.7
			c13.4-2.9,23.2-7.2,29.5-12.9l1.5,1.7l0.5,8.8v2.7c0,6.7-0.3,12.1-1,16.2c-0.5,5.6-1.8,10.1-4,13.6c-2.2,3.5-8.6,7.2-19.3,11.2
			l-15.7,5.4l-17.7,6.4c-1,0.5-1.8,0-2.3-1.4c-0.6-1.4-0.9-2.9-1.1-4.4c-0.2-1.6-0.2-4.1-0.2-7.7l0.2-8.8c0-2.9,0.3-6.3,0.9-10.1
			C410.4,739.1,411.6,736.1,413.4,733.8z"/>
		<path class="st2" d="M610,628.3c-1.1,0.7-2.3,0.2-3.6-1.2c-1.2-1.5-2.7-4.8-4.5-10.1c-2.5-9.2-4.6-13.8-6.4-14
			c-1.3,0-3.2,1-5.6,2.9l-14.5,51.8c-6.2,25.5-12.5,46.8-18.8,63.9c-6.3,17.1-15.7,31-28.1,41.6c-11.5,9.7-27,17.5-46.5,23.7
			s-38.8,9.2-57.8,9.2c-14.4,0-27.2-1.6-38.5-4.7c2.1-3.4,13.8-8.1,35.1-14c21.3-5.9,40.1-12.8,56.6-20.7
			c16.4-7.9,30.1-19.8,40.9-35.5l14-22.3c3.8-6.7,7.6-14.5,11.5-23.3c2.9-7.2,6-15.3,9.1-24.3c2.5-7.2,5.2-15.9,8.3-26l7.9-27
			c2-6.5,3-10.1,3.2-10.6c0.8-2.5,2.1-5.8,3.9-10.1c4.4-12.9,10.9-19.4,19.4-19.4c5.4,0,10,3.8,13.9,11.5c3.8,7.7,5.8,15.8,5.8,24.4
			L615,603c0,3.3-0.3,6.3-1,9C613.5,617.8,612.2,623.3,610,628.3z"/>
		<path class="st2" d="M752.2,672.4h-6.9h-8.8c-5.4,58.8-19.1,96.6-41,113.5c-20.8,16.2-39.9,26.7-57.4,31.6
			c-16.5,4.4-33,6.6-49.3,6.6h-11.3c-2.6,0-4.7-0.1-6.1-0.2c-1.5-0.2-3.9-0.7-7.4-1.5c-6.5-1-9.9-2.4-10.1-4.2l13-3.4l21.4-5.2
			c11.5-2.5,23.6-7,36.3-13.6c12.8-6.6,26.3-15.4,40.5-26.4c14.2-11,25.6-21.3,34.1-31.1c8.5-9.7,14-18.7,16.4-26.9
			c4.4-15.9,6.9-25.9,7.4-29.9l0.7-12v-2.9l-0.7-4.2V658c-2.3,0-7.9,2.4-16.9,7.1l-11.5,5.6l-7.9,1.8c-1.6,0-2.9-0.1-3.9-0.4
			c-1-0.2-2.5-0.8-4.4-1.6c-2.1-1.3-5.5-4.8-10.1-10.4c-3.9-5.8-5.9-15.3-5.9-28.6c0-3.5,0.1-6.2,0.2-8.1c0.2-2,0.7-5.3,1.7-10
			c1-4.7,3.8-10.1,8.3-16.2c4.6-6.1,11.2-9.1,19.9-9.1c7.9,0,15.4,3.4,22.6,10.2c7.2,6.8,12.8,17.1,16.9,30.8c2.6,0,4.7-0.2,6.1-0.7
			l7.1-1.7h7.9L752.2,672.4z"/>
		<path class="st2" d="M745.3,626.5c25-3.9,42.8-10.4,53.4-19.4c10.6-9,15.8-24.5,15.8-46.4c0-6.2-1.6-13.8-4.9-22.8
			c-3.3-9-8.6-19.6-15.8-31.9c-13.5-24.1-27.2-40.1-41.1-48.1c-1,0.5-1.7,1.4-2.2,2.8c-0.5,1.4-0.7,3.1-0.7,5c0,7.9,1.3,18.6,4,32.2
			l7.8,32.4l4.8,19.4c1,5.2,1.5,9.7,1.5,13.3c0,4.4-0.8,6.6-2.5,6.6l-4.7-7.1l-3.4-6.1l-9.6-25.8l-5.2-19.4l-4.7-25
			c-1-7-1.7-12.7-2.2-17.1c-0.5-4.3-0.7-8.1-0.7-11.4l-1-36.6l-13,4.9l-12.8,4.4c-8.5,2.1-16,3.2-22.3,3.2c-4.4,0-7.4-0.4-8.8-1.2
			c10-3.4,22.8-10.1,38.5-20.1c7.5-4.7,16.3-11.3,26.3-19.6c10-8.3,21.7-19,35.1-31.9c25.7-25,46.6-54.4,62.7-88
			c16.1-33.6,28.9-67.1,38.4-100.4c9.5-33.3,16.3-50.5,20.4-51.7c2.1,0,3.2,4.1,3.2,12.3c0,11.3-1.6,25.8-4.9,43.5
			c-3.3,17.7-7.6,33.1-13,46.2c-2.5,7-4.7,14.6-6.6,22.6c-2,8-3.8,16.9-5.4,26.8l-7.4,71.4l-5.2,18.7c-2.5-2.5-4.4-6.4-5.9-11.8
			l-1.2-8.6l-0.5-9.6l1-21.6l1-17.7c-0.5,4.9-5.9,15.2-16.3,30.8c-10.4,15.6-23.4,31.9-38.9,48.7c-7,7.5-14.9,14.9-23.6,22.1
			c-8,6.5-16.4,12.5-25,17.9c23.9,16.4,43.3,38.9,58.2,67.5c14.9,28.6,22.3,58.8,22.3,90.6v6.6c0,1.6,0,3.2,0,4.7c0,1.6,0,2.8,0,3.4
			c0,2.1-0.1,3.8-0.2,5s-0.7,4.1-1.5,8.7c-5.4,22.7-15.1,39.8-28.9,51.1c-6.4,4.9-14.1,9.3-23.1,13.3c-9,3.9-19.4,7-31.2,9.3V626.5z
			"/>
	</g>
	<g>
		<path class="st2" d="M409,672.4c-15.7,0-28.4-4.1-38.1-12.4c-9.7-8.3-17.8-20.5-24.3-36.7l-8.9-25.3l-9.3-33.4l-8.4-34.6
			l-7.6-35.3l-9.2-53.1c-1.5-11.8-2.2-19.4-2.2-22.9c0-5.2,0.5-9.7,1.5-13.3c1-3.6,2.6-5.4,4.9-5.4c1.3,0,4.1,9.6,8.4,28.8
			l14.2,65.8l8.3,36.6c1.8,7.2,3.3,12.8,4.4,16.7c1.1,3.9,2.8,9,4.9,15.2c6.4,20.5,14.4,36.1,23.9,47c9.6,10.9,22,16.3,37.4,16.3
			V672.4z"/>
		<path class="st2" d="M404.6,626.5l8.6-1.5c1.6-0.2,3.2-0.4,4.8-0.6c1.6-0.2,3.4-0.7,5.5-1.3c3.8-0.8,7.2-1.9,10.2-3.2
			c3-1.3,6.8-3.4,11.4-6.1c7.7-4.3,12.4-13.7,14.2-28.4c1.8-14.6,4-22.5,6.6-23.7c2.3-0.5,4.3,2.1,5.9,7.9c0.7,2.5,1.2,5.7,1.7,9.8
			c0.5,4.1,0.7,8.3,0.7,12.8l-0.7,15.7c-0.2,2.3-0.5,4.7-1,7.2c-0.5,2.5-1.1,5-1.7,7.5c-2,8.8-5.8,16.5-11.4,23
			c-5.6,6.5-13.4,12.2-23.3,17.2c-9.9,5-20.4,8.2-31.5,9.7V626.5z M413.4,733.8c3.4-4.9,11.9-8.8,25.3-11.7
			c13.4-2.9,23.2-7.2,29.5-12.9l1.5,1.7l0.5,8.8v2.7c0,6.7-0.3,12.1-1,16.2c-0.5,5.6-1.8,10.1-4,13.6c-2.2,3.5-8.6,7.2-19.3,11.2
			l-15.7,5.4l-17.7,6.4c-1,0.5-1.8,0-2.3-1.4c-0.6-1.4-0.9-2.9-1.1-4.4c-0.2-1.6-0.2-4.1-0.2-7.7l0.2-8.8c0-2.9,0.3-6.3,0.9-10.1
			C410.4,739.1,411.6,736.1,413.4,733.8z"/>
		<path class="st2" d="M610,628.3c-1.1,0.7-2.3,0.2-3.6-1.2c-1.2-1.5-2.7-4.8-4.5-10.1c-2.5-9.2-4.6-13.8-6.4-14
			c-1.3,0-3.2,1-5.6,2.9l-14.5,51.8c-6.2,25.5-12.5,46.8-18.8,63.9c-6.3,17.1-15.7,31-28.1,41.6c-11.5,9.7-27,17.5-46.5,23.7
			s-38.8,9.2-57.8,9.2c-14.4,0-27.2-1.6-38.5-4.7c2.1-3.4,13.8-8.1,35.1-14c21.3-5.9,40.1-12.8,56.6-20.7
			c16.4-7.9,30.1-19.8,40.9-35.5l14-22.3c3.8-6.7,7.6-14.5,11.5-23.3c2.9-7.2,6-15.3,9.1-24.3c2.5-7.2,5.2-15.9,8.3-26l7.9-27
			c2-6.5,3-10.1,3.2-10.6c0.8-2.5,2.1-5.8,3.9-10.1c4.4-12.9,10.9-19.4,19.4-19.4c5.4,0,10,3.8,13.9,11.5c3.8,7.7,5.8,15.8,5.8,24.4
			L615,603c0,3.3-0.3,6.3-1,9C613.5,617.8,612.2,623.3,610,628.3z"/>
		<path class="st2" d="M752.2,672.4h-6.9h-8.8c-5.4,58.8-19.1,96.6-41,113.5c-20.8,16.2-39.9,26.7-57.4,31.6
			c-16.5,4.4-33,6.6-49.3,6.6h-11.3c-2.6,0-4.7-0.1-6.1-0.2c-1.5-0.2-3.9-0.7-7.4-1.5c-6.5-1-9.9-2.4-10.1-4.2l13-3.4l21.4-5.2
			c11.5-2.5,23.6-7,36.3-13.6c12.8-6.6,26.3-15.4,40.5-26.4c14.2-11,25.6-21.3,34.1-31.1c8.5-9.7,14-18.7,16.4-26.9
			c4.4-15.9,6.9-25.9,7.4-29.9l0.7-12v-2.9l-0.7-4.2V658c-2.3,0-7.9,2.4-16.9,7.1l-11.5,5.6l-7.9,1.8c-1.6,0-2.9-0.1-3.9-0.4
			c-1-0.2-2.5-0.8-4.4-1.6c-2.1-1.3-5.5-4.8-10.1-10.4c-3.9-5.8-5.9-15.3-5.9-28.6c0-3.5,0.1-6.2,0.2-8.1c0.2-2,0.7-5.3,1.7-10
			c1-4.7,3.8-10.1,8.3-16.2c4.6-6.1,11.2-9.1,19.9-9.1c7.9,0,15.4,3.4,22.6,10.2c7.2,6.8,12.8,17.1,16.9,30.8c2.6,0,4.7-0.2,6.1-0.7
			l7.1-1.7h7.9L752.2,672.4z"/>
		<path class="st2" d="M745.3,626.5c25-3.9,42.8-10.4,53.4-19.4c10.6-9,15.8-24.5,15.8-46.4c0-6.2-1.6-13.8-4.9-22.8
			c-3.3-9-8.6-19.6-15.8-31.9c-13.5-24.1-27.2-40.1-41.1-48.1c-1,0.5-1.7,1.4-2.2,2.8c-0.5,1.4-0.7,3.1-0.7,5c0,7.9,1.3,18.6,4,32.2
			l7.8,32.4l4.8,19.4c1,5.2,1.5,9.7,1.5,13.3c0,4.4-0.8,6.6-2.5,6.6l-4.7-7.1l-3.4-6.1l-9.6-25.8l-5.2-19.4l-4.7-25
			c-1-7-1.7-12.7-2.2-17.1c-0.5-4.3-0.7-8.1-0.7-11.4l-1-36.6l-13,4.9l-12.8,4.4c-8.5,2.1-16,3.2-22.3,3.2c-4.4,0-7.4-0.4-8.8-1.2
			c10-3.4,22.8-10.1,38.5-20.1c7.5-4.7,16.3-11.3,26.3-19.6c10-8.3,21.7-19,35.1-31.9c25.7-25,46.6-54.4,62.7-88
			c16.1-33.6,28.9-67.1,38.4-100.4c9.5-33.3,16.3-50.5,20.4-51.7c2.1,0,3.2,4.1,3.2,12.3c0,11.3-1.6,25.8-4.9,43.5
			c-3.3,17.7-7.6,33.1-13,46.2c-2.5,7-4.7,14.6-6.6,22.6c-2,8-3.8,16.9-5.4,26.8l-7.4,71.4l-5.2,18.7c-2.5-2.5-4.4-6.4-5.9-11.8
			l-1.2-8.6l-0.5-9.6l1-21.6l1-17.7c-0.5,4.9-5.9,15.2-16.3,30.8c-10.4,15.6-23.4,31.9-38.9,48.7c-7,7.5-14.9,14.9-23.6,22.1
			c-8,6.5-16.4,12.5-25,17.9c23.9,16.4,43.3,38.9,58.2,67.5c14.9,28.6,22.3,58.8,22.3,90.6v6.6c0,1.6,0,3.2,0,4.7c0,1.6,0,2.8,0,3.4
			c0,2.1-0.1,3.8-0.2,5s-0.7,4.1-1.5,8.7c-5.4,22.7-15.1,39.8-28.9,51.1c-6.4,4.9-14.1,9.3-23.1,13.3c-9,3.9-19.4,7-31.2,9.3V626.5z
			"/>
	</g>
	<g>
		<path class="st2" d="M409,672.4c-15.7,0-28.4-4.1-38.1-12.4c-9.7-8.3-17.8-20.5-24.3-36.7l-8.9-25.3l-9.3-33.4l-8.4-34.6
			l-7.6-35.3l-9.2-53.1c-1.5-11.8-2.2-19.4-2.2-22.9c0-5.2,0.5-9.7,1.5-13.3c1-3.6,2.6-5.4,4.9-5.4c1.3,0,4.1,9.6,8.4,28.8
			l14.2,65.8l8.3,36.6c1.8,7.2,3.3,12.8,4.4,16.7c1.1,3.9,2.8,9,4.9,15.2c6.4,20.5,14.4,36.1,23.9,47c9.6,10.9,22,16.3,37.4,16.3
			V672.4z"/>
		<path class="st2" d="M404.6,626.5l8.6-1.5c1.6-0.2,3.2-0.4,4.8-0.6c1.6-0.2,3.4-0.7,5.5-1.3c3.8-0.8,7.2-1.9,10.2-3.2
			c3-1.3,6.8-3.4,11.4-6.1c7.7-4.3,12.4-13.7,14.2-28.4c1.8-14.6,4-22.5,6.6-23.7c2.3-0.5,4.3,2.1,5.9,7.9c0.7,2.5,1.2,5.7,1.7,9.8
			c0.5,4.1,0.7,8.3,0.7,12.8l-0.7,15.7c-0.2,2.3-0.5,4.7-1,7.2c-0.5,2.5-1.1,5-1.7,7.5c-2,8.8-5.8,16.5-11.4,23
			c-5.6,6.5-13.4,12.2-23.3,17.2c-9.9,5-20.4,8.2-31.5,9.7V626.5z M413.4,733.8c3.4-4.9,11.9-8.8,25.3-11.7
			c13.4-2.9,23.2-7.2,29.5-12.9l1.5,1.7l0.5,8.8v2.7c0,6.7-0.3,12.1-1,16.2c-0.5,5.6-1.8,10.1-4,13.6c-2.2,3.5-8.6,7.2-19.3,11.2
			l-15.7,5.4l-17.7,6.4c-1,0.5-1.8,0-2.3-1.4c-0.6-1.4-0.9-2.9-1.1-4.4c-0.2-1.6-0.2-4.1-0.2-7.7l0.2-8.8c0-2.9,0.3-6.3,0.9-10.1
			C410.4,739.1,411.6,736.1,413.4,733.8z"/>
		<path class="st2" d="M610,628.3c-1.1,0.7-2.3,0.2-3.6-1.2c-1.2-1.5-2.7-4.8-4.5-10.1c-2.5-9.2-4.6-13.8-6.4-14
			c-1.3,0-3.2,1-5.6,2.9l-14.5,51.8c-6.2,25.5-12.5,46.8-18.8,63.9c-6.3,17.1-15.7,31-28.1,41.6c-11.5,9.7-27,17.5-46.5,23.7
			s-38.8,9.2-57.8,9.2c-14.4,0-27.2-1.6-38.5-4.7c2.1-3.4,13.8-8.1,35.1-14c21.3-5.9,40.1-12.8,56.6-20.7
			c16.4-7.9,30.1-19.8,40.9-35.5l14-22.3c3.8-6.7,7.6-14.5,11.5-23.3c2.9-7.2,6-15.3,9.1-24.3c2.5-7.2,5.2-15.9,8.3-26l7.9-27
			c2-6.5,3-10.1,3.2-10.6c0.8-2.5,2.1-5.8,3.9-10.1c4.4-12.9,10.9-19.4,19.4-19.4c5.4,0,10,3.8,13.9,11.5c3.8,7.7,5.8,15.8,5.8,24.4
			L615,603c0,3.3-0.3,6.3-1,9C613.5,617.8,612.2,623.3,610,628.3z"/>
		<path class="st2" d="M752.2,672.4h-6.9h-8.8c-5.4,58.8-19.1,96.6-41,113.5c-20.8,16.2-39.9,26.7-57.4,31.6
			c-16.5,4.4-33,6.6-49.3,6.6h-11.3c-2.6,0-4.7-0.1-6.1-0.2c-1.5-0.2-3.9-0.7-7.4-1.5c-6.5-1-9.9-2.4-10.1-4.2l13-3.4l21.4-5.2
			c11.5-2.5,23.6-7,36.3-13.6c12.8-6.6,26.3-15.4,40.5-26.4c14.2-11,25.6-21.3,34.1-31.1c8.5-9.7,14-18.7,16.4-26.9
			c4.4-15.9,6.9-25.9,7.4-29.9l0.7-12v-2.9l-0.7-4.2V658c-2.3,0-7.9,2.4-16.9,7.1l-11.5,5.6l-7.9,1.8c-1.6,0-2.9-0.1-3.9-0.4
			c-1-0.2-2.5-0.8-4.4-1.6c-2.1-1.3-5.5-4.8-10.1-10.4c-3.9-5.8-5.9-15.3-5.9-28.6c0-3.5,0.1-6.2,0.2-8.1c0.2-2,0.7-5.3,1.7-10
			c1-4.7,3.8-10.1,8.3-16.2c4.6-6.1,11.2-9.1,19.9-9.1c7.9,0,15.4,3.4,22.6,10.2c7.2,6.8,12.8,17.1,16.9,30.8c2.6,0,4.7-0.2,6.1-0.7
			l7.1-1.7h7.9L752.2,672.4z"/>
		<path class="st2" d="M745.3,626.5c25-3.9,42.8-10.4,53.4-19.4c10.6-9,15.8-24.5,15.8-46.4c0-6.2-1.6-13.8-4.9-22.8
			c-3.3-9-8.6-19.6-15.8-31.9c-13.5-24.1-27.2-40.1-41.1-48.1c-1,0.5-1.7,1.4-2.2,2.8c-0.5,1.4-0.7,3.1-0.7,5c0,7.9,1.3,18.6,4,32.2
			l7.8,32.4l4.8,19.4c1,5.2,1.5,9.7,1.5,13.3c0,4.4-0.8,6.6-2.5,6.6l-4.7-7.1l-3.4-6.1l-9.6-25.8l-5.2-19.4l-4.7-25
			c-1-7-1.7-12.7-2.2-17.1c-0.5-4.3-0.7-8.1-0.7-11.4l-1-36.6l-13,4.9l-12.8,4.4c-8.5,2.1-16,3.2-22.3,3.2c-4.4,0-7.4-0.4-8.8-1.2
			c10-3.4,22.8-10.1,38.5-20.1c7.5-4.7,16.3-11.3,26.3-19.6c10-8.3,21.7-19,35.1-31.9c25.7-25,46.6-54.4,62.7-88
			c16.1-33.6,28.9-67.1,38.4-100.4c9.5-33.3,16.3-50.5,20.4-51.7c2.1,0,3.2,4.1,3.2,12.3c0,11.3-1.6,25.8-4.9,43.5
			c-3.3,17.7-7.6,33.1-13,46.2c-2.5,7-4.7,14.6-6.6,22.6c-2,8-3.8,16.9-5.4,26.8l-7.4,71.4l-5.2,18.7c-2.5-2.5-4.4-6.4-5.9-11.8
			l-1.2-8.6l-0.5-9.6l1-21.6l1-17.7c-0.5,4.9-5.9,15.2-16.3,30.8c-10.4,15.6-23.4,31.9-38.9,48.7c-7,7.5-14.9,14.9-23.6,22.1
			c-8,6.5-16.4,12.5-25,17.9c23.9,16.4,43.3,38.9,58.2,67.5c14.9,28.6,22.3,58.8,22.3,90.6v6.6c0,1.6,0,3.2,0,4.7c0,1.6,0,2.8,0,3.4
			c0,2.1-0.1,3.8-0.2,5s-0.7,4.1-1.5,8.7c-5.4,22.7-15.1,39.8-28.9,51.1c-6.4,4.9-14.1,9.3-23.1,13.3c-9,3.9-19.4,7-31.2,9.3V626.5z
			"/>
	</g>
</g>
<g id="world" class="st0">
	<g class="st3">
		<path class="st4" d="M272.6,763.6c-47.5-10.7-80.1-22.3-97.6-34.7c-18-13.1-29.5-25.2-34.4-36.5c-4.9-11.2-7.4-21.2-7.4-30.1
			c0-25.7,7-48.2,20.9-67.5c13.9-19.3,33.8-42.1,59.6-68.5c8.7-8.7,14.9-15.4,18.8-20.3c3.8-4.8,8.8-11.7,14.9-20.5
			c13.7-16.7,22.5-26.9,26.3-30.7c1.1-1.3,2-4.2,2.5-8.6c0.5-2.5,0.8-4.8,1-7.1c0.2-2.3,0.2-4.5,0.2-6.6c0-7.5-1-12.5-3.1-14.9
			c-2.1-2.4-3.7-3.6-5.1-3.6c-2,0-6,2.9-12.1,8.8c-6.1,5.9-10.9,10.1-14.4,12.6c-3.5,2.5-7,3.8-10.5,3.8c-4.1,0-7.5-0.8-10.6-2.5
			c-3.1-2-4.7-3.8-4.7-5.4v-4.9c0-6.9,2.1-14.3,6.9-22.3c2.6-4.3,5.5-8.8,9-13.5s7.1-9.6,11-14.5c4.7-5.7,8.8-11.3,12.4-16.8
			c3.5-5.5,7-11.8,10.4-18.9c3.4-7.1,6-13.4,7.6-18.9c1.6-5.5,2.9-12.3,3.8-20.4c0.9-8.1,1.3-16.3,1.3-24.7
			c0-13.3-1.3-26.3-3.9-39.3c-2.6-12.9-6.5-25.7-11.5-38.2c-5.1-12.5-10.4-24-16-34.4c-5.6-10.4-11.5-19.7-17.7-27.9
			c-13.1-16.7-22.3-25-27.7-25c-1.3,0.2-2.5,0.9-3.4,2.2c-1,1.3-2,5.6-3.1,12.9c-1.1,7.3-1.6,16.5-1.6,27.6
			c0,11.5,1.1,23.7,3.4,36.6c1.3,6.6,2.7,12.5,4.3,17.8c1.6,5.3,3.3,10.2,5.3,14.6c1,1.8,3.3,6,6.9,12.5c2.6,4.7,4.7,8.2,6.1,10.3
			c4.4,6.4,8,9.6,10.8,9.6l-1.5-7.9c-7-17.2-11.6-29.7-13.7-37.6c-1.1-3.4-2.1-6.9-2.9-10.3c-0.2-0.8-0.8-3.7-2-8.6
			c-0.3-2-0.7-4.3-1.1-6.9c-0.4-2.6-0.6-4.6-0.6-5.9c0.5-3.4,1-5.5,1.5-6.1c1.1-1.3,2.3-2,3.4-2c7.7,0,18.6,11.7,32.6,35
			c14.1,23.3,21.1,43.7,21.1,61.2c0,9.7-1.6,18.2-4.9,25.8c-1.6,4.1-3.8,8.5-6.5,13.3c-2.7,4.7-5.7,9.4-9,14l-24.5,36.1
			c-9.5,13.9-16.4,27.3-20.9,40.3c-4.4,12.9-6.6,28.3-6.6,46.1c2.5,12.8,5.3,20.1,8.5,22.1c3.2,2,5.2,3.9,6,5.9
			c-0.3,3.4-5.2,10.5-14.5,21.1c-2.6,2.9-11.3,12.8-26,29.5c-8.2,9.2-14.7,16.5-19.6,22.1c-5.6,6.2-10.5,11.9-14.7,17.2
			c-8.5,10.1-14.8,21.5-18.9,34c-4.1,12.5-7,23.1-8.6,31.8c-1.6,8.7-2.5,16.9-2.5,24.8c0,29.9,11.1,55.4,33.4,76.2
			c22.3,20.9,56.9,35.7,104.1,44.6c4.7,1,10.8,2,18.3,3.1c7.4,1.1,16.2,2.2,26.4,3.3l41,6.4c3.9,1,7.4,2,10.6,2.9
			c1,0.3,2.1,0.7,3.4,1.2l1,1l0.5-2.2C343.9,782.3,320.1,774.4,272.6,763.6z"/>
		<path class="st4" d="M583.5,355.1l-4.7,6.9l-5.4,6.4l-10.1,11.5l-9.1,9.1l-5.6,4.9l-6.4,4.9c0-17.7-2.8-33.1-8.3-46.3
			c-5.6-13.2-17.3-19.8-35.3-19.8c-14.6,0-29.1,7-43.7,21.1c-14.6,14.1-21.8,31-21.8,50.8c0,3.1,0.2,6.5,0.7,10.1
			c0.5,3.6,1.1,6.8,1.7,9.6c2,6.2,8.2,12.4,18.7,18.7c10.5,6.2,20.5,10.5,29.9,12.8c-3.4,6.2-8.5,10.9-15.1,14.1
			c-6.2,3-16.4,4.6-30.7,4.8c-14.9-0.3-27-5.7-36.3-16.3c-9.6-10.9-17.6-26.5-23.9-47c-2.1-6.2-3.8-11.3-4.9-15.2
			c-1.1-3.9-2.6-9.5-4.4-16.7l-8.3-36.6L346.1,277c-4.3-19.2-7-28.8-8.4-28.8c-2.3,0-3.9,1.8-4.9,5.4c-1,3.6-1.5,8-1.5,13.3
			c0,3.4,0.7,11.1,2.2,22.9l9.2,53.1l7.6,35.3l8.4,34.6l9.3,33.4l8.9,25.3c6.6,16.2,14.7,28.4,24.4,36.7
			c8.7,7.5,19.7,11.6,33.7,12.3v0.1c1,0,1.1,0,1.8,0c0.8,0,2.2,0,2.2,0v-0.2c12-0.8,23.2-5,34.6-12.5c12.9-8.4,25.1-18.5,36.5-30.3
			l19.2-21.8L528,468v21.4c0,6.7,0.1,12.2,0.6,16.4c0.9,3.9,1.7,5.9,2.4,5.9c2.8-1,4.5-2.4,5.1-4.2c1.1-2.1,1.7-3.8,1.7-4.9
			l1.2-28.5l3.2-34.1c1.5-1.5,4-4.2,7.6-8.1c2.9-3.3,5-5.6,6.1-6.9l12.3-16.4l9.3-13.3c1.5-2.5,3-5.6,4.5-9.6
			c1.6-3.9,2.3-6.5,2.3-7.6l1.2-5.9c0.7-2.8,1-6.1,1-9.8C586.7,357.5,585.6,355.1,583.5,355.1z M529,405.4v4.4
			c-7,5.1-15.1,7.6-25.3,7.6c-1.8,0-3.4,0-4.9-0.1c-1.5-0.1-4.3-0.5-8.6-1.1l-13.3-3.7c-9.2-3.6-15.7-7.1-19.5-10.4
			c-1-1.5-0.3-3.9,2-7.3c2.3-3.4,5.7-7,10.3-10.8c4.9-3.8,9.3-6.1,13.3-7.3c2.5-1.2,4.3-1.6,5.7-1.6c1.1,0,3.4,0,6.8,0
			c6.1,0,11.6,1.3,16.5,4.3c4.8,2.9,8.4,5.9,10.7,9c3.1,3.8,4.7,6.7,5.2,8.8l1.4,4.1V405.4z"/>
	</g>
</g>
<g id="korea_1_" class="st0">
	<g class="st3">
		<path class="st5" d="M438.7,722.2c-13.4,2.9-21.8,6.8-25.3,11.7c-1.8,2.3-3,5.3-3.6,9.1c-0.6,3.8-0.9,7.1-0.9,10.1l-0.2,8.8
			c0,3.6,0.1,6.2,0.2,7.7c0.2,1.6,0.5,3,1.1,4.4c0.6,1.4,1.4,1.8,2.3,1.4l17.7-6.4l15.7-5.4c10.6-3.9,17.1-7.7,19.3-11.2
			c2.2-3.5,3.5-8.1,4-13.6c0.7-4.1,0.9-9.5,0.9-16.2v-2.7l-0.4-8.8l-1.4-1.7C461.9,715,452.1,719.3,438.7,722.2z"/>
		<path class="st5" d="M405,672.4c0,0,0.2-0.1,0.4-0.1c1.3,0.1,2.6,0.1,3.6,0.1v-0.7c10-1.7,18.5-4.7,27.1-9
			c9.9-5,17.7-10.7,23.3-17.2c5.6-6.5,9.5-14.1,11.4-23c0.7-2.5,1.2-4.9,1.7-7.5c0.5-2.5,0.8-4.9,1-7.2l0.7-15.7
			c0-4.4-0.2-8.7-0.7-12.8c-0.5-4.1-1.1-7.4-1.7-9.8c-1.6-5.7-3.6-8.3-5.9-7.9c-2.6,1.1-4.8,9-6.6,23.7
			c-1.8,14.6-6.5,24.1-14.2,28.4c-4.6,2.8-8.4,4.8-11.4,6.1c-3,1.3-6.4,2.4-10.2,3.2c-2.1,0.7-4,1.1-5.5,1.3
			c-1.6,0.2-3.2,0.5-4.8,0.6l-7.9,1.4c-13.7-0.8-24.9-6.2-33.7-16.2c-9.6-10.9-17.6-26.5-23.9-47c-2.1-6.2-3.8-11.3-4.9-15.2
			c-1.1-3.9-2.6-9.5-4.4-16.7l-8.3-36.6L315.7,429c-4.3-19.2-7-28.8-8.4-28.8c-2.3,0-3.9,1.8-4.9,5.4c-1,3.6-1.5,8-1.5,13.3
			c0,3.4,0.7,11.1,2.2,22.9l9.2,53.1l7.6,35.3l8.4,34.6l9.3,33.4l8.9,25.3c6.6,16.2,14.9,28.4,24.5,36.7
			c8.7,7.5,19.9,11.6,33.9,12.3V672.4z"/>
		<path class="st5" d="M575.4,657.7l14.5-51.8c2.5-2,4.3-2.9,5.6-2.9c1.8,0.2,3.9,4.8,6.4,14c1.8,5.2,3.3,8.6,4.5,10.1
			c1.2,1.5,2.4,1.9,3.6,1.2c2.1-5,3.4-10.4,3.9-16.3c0.7-2.7,1-5.7,1-9l0.2-8.7c0-8.6-1.9-16.7-5.8-24.4
			c-3.8-7.7-8.5-11.5-13.9-11.5c-8.5,0-15,6.5-19.4,19.4c-1.8,4.3-3.1,7.6-3.9,10.1c-0.2,0.5-1.2,4-3.2,10.6l-7.9,27
			c-3.1,10.1-5.9,18.8-8.3,26c-3.1,9-6.1,17.1-9.1,24.3c-3.9,8.8-7.8,16.6-11.5,23.3l-14,22.3c-10.8,15.7-24.4,27.5-40.9,35.5
			c-16.4,7.9-35.3,14.9-56.6,20.7c-21.3,5.9-33,10.6-35.1,14c11.3,3.1,24.1,4.7,38.5,4.7c19,0,38.3-3.1,57.8-9.2s35.1-14,46.5-23.7
			c12.4-10.6,21.8-24.5,28.1-41.6C563,704.6,569.2,683.2,575.4,657.7z"/>
		<path class="st5" d="M898.5,120.6c-4.1,1.1-10.9,18.4-20.4,51.7c-9.5,33.3-22.3,66.8-38.4,100.4c-16.1,33.6-37,63-62.7,88
			c-13.4,12.9-25.1,23.6-35.1,31.9c-10,8.3-18.7,14.9-26.3,19.6c-15.7,10-28.6,16.7-38.5,20.1c1.5,0.8,4.4,1.2,8.8,1.2
			c6.4,0,13.8-1.1,22.3-3.2L721,426l13-4.9l1,36.6c0,3.3,0.2,7.1,0.7,11.4c0.5,4.3,1.2,10,2.2,17.1l4.7,25l5.2,19.4l9.6,25.8
			l3.4,6.1l4.7,7.1c1.6,0,2.5-2.2,2.5-6.6c0-3.6-0.5-8-1.5-13.3l-4.8-19.4l-7.8-32.4c-2.7-13.6-4-24.3-4-32.2c0-2,0.2-3.6,0.7-5
			c0.5-1.4,1.2-2.3,2.2-2.8c13.8,8,27.5,24.1,41.1,48.1c7.3,12.3,12.5,22.9,15.8,31.9c3.3,9,4.9,16.6,4.9,22.8
			c0,21.9-5.3,37.4-15.8,46.4c-10.6,9-28.4,15.5-53.4,19.4v0l-7.1,1.7c-1.5,0.5-3.5,0.7-6.1,0.7c-4.1-13.7-9.7-24-16.9-30.8
			c-7.2-6.8-14.7-10.2-22.6-10.2c-8.7,0-15.3,3-19.9,9.1c-4.6,6.1-7.4,11.5-8.3,16.2c-1,4.7-1.6,8-1.7,10c-0.2,2-0.2,4.7-0.2,8.1
			c0,13.3,2,22.9,5.9,28.6c4.6,5.6,7.9,9.1,10.1,10.4c2,0.8,3.4,1.4,4.4,1.6c1,0.2,2.3,0.4,3.9,0.4l7.9-1.8l11.6-5.6
			c9-4.7,15-7.1,17-7.1v4.7l1,4.2v2.9l-0.9,12c-0.5,4.1-3,14.1-7.4,29.9c-2.5,8.2-8,17.1-16.5,26.9c-8.5,9.7-19.9,20.1-34.1,31.1
			c-14.2,11-27.7,19.8-40.5,26.4c-12.8,6.6-24.9,11.2-36.3,13.6l-21.4,5.2l-13,3.4c0.2,1.8,3.5,3.2,10.1,4.2
			c3.4,0.8,5.9,1.2,7.4,1.4c1.5,0.2,3.5,0.2,6.1,0.2h11.3c16.4,0,32.8-2.1,49.3-6.5c17.5-4.9,36.7-15.6,57.4-31.8
			c21.9-16.8,35.6-54.7,41-113.7h8.8h6.9l0-1.3c9-2.1,17.1-4.6,24.3-7.7c9-3.9,16.7-8.3,23.1-13.2c13.8-11.3,23.5-28.3,28.9-51
			c0.8-4.6,1.2-7.5,1.4-8.7s0.1-2.9,0.1-5c0-0.7,0-1.8,0-3.4c0-1.5,0-3,0-4.7v-6.6c0-31.7-7.3-61.9-22.2-90.6
			c-14.9-28.6-34.2-51.1-58.1-67.5c8.7-5.4,17-11.4,25.1-17.9c8.7-7.2,16.5-14.6,23.6-22.1c15.5-16.9,28.5-33.1,38.9-48.7
			c10.4-15.6,15.8-25.9,16.3-30.8l-1,17.7l-1,21.6l0.5,9.6l1.2,8.6c1.5,5.4,3.4,9.3,5.9,11.8l5.2-18.7l7.4-71.4
			c1.6-9.8,3.4-18.7,5.4-26.8c2-8,4.2-15.5,6.6-22.6c5.4-13.1,9.7-28.5,13-46.2c3.3-17.7,4.9-32.2,4.9-43.5
			C901.6,124.7,900.6,120.6,898.5,120.6z"/>
	</g>
</g>
</svg>
